<svg xmlns="http://www.w3.org/2000/svg" width="100" height="102" viewBox="0 0 100 102">
    <path fill="#093548" d="M5.152 24.372c.462-.002.922.06 1.367.184l27.719 7.514c6.898-3.287 28.575 2.423 31.365 3.183 7.166 1.862 14.147 4.378 20.857 7.515 6.489 3.195 9.186 5.878 8.494 8.453l-.667 2.49c-1.296 4.836-4.456 8.957-8.781 11.453-4.325 2.495-9.461 3.162-14.276 1.85l-26.416-7.158c-8.109-2.219-13.77-9.566-13.874-18.003L3.816 34.501c-2.495-.664-4.11-3.085-3.771-5.655.339-2.569 2.526-4.485 5.107-4.474zm29.445 14.501c-.208 1.151-.285 2.322-.23 3.49.02.019.048.024.068.043 1.99 1.948 6.867 4.477 13.377 6.94.774.292 1.228 1.098 1.08 1.914-.147.817-.855 1.41-1.682 1.41-.205 0-.41-.038-.602-.11-3.853-1.392-7.575-3.123-11.126-5.17 1.79 4.49 5.576 7.876 10.224 9.144l26.414 7.159c7.701 2.08 15.708-2.093 18.447-9.614-1.233.197-2.481.29-3.73.278-.754 0-1.589-.032-2.444-.08h-.09c-.311-.018-.608-.03-.933-.054-.539-.037-1.108-.094-1.674-.149l-.09-.008c-2.835-.28-5.985-.755-9.332-1.405-.069-.013-.137-.029-.207-.041-.984-.186-1.983-.394-2.995-.623l-.609-.132c-.896-.2-1.8-.412-2.711-.634-.263-.061-.516-.122-.777-.187-1.12-.276-2.252-.568-3.391-.877-.457-.124-1.43-.393-2.736-.778-3.204-.923-6.274-1.938-9.133-2.983-.44-.16-.882-.323-1.326-.49l-.717-.268c-4.672-1.586-9.08-3.87-13.075-6.775zm27.335 16.72c.223-.909 1.132-1.47 2.042-1.26 1.112.277 2.212.536 3.289.778.85.19 1.422.992 1.327 1.862-.094.87-.825 1.529-1.696 1.53-.126 0-.252-.014-.374-.04-1.106-.25-2.23-.515-3.369-.798-.901-.24-1.444-1.163-1.22-2.071zm-9.873-2.911c.286-.904 1.248-1.403 2.148-1.116 1.056.336 2.135.668 3.236.994.817.24 1.335 1.046 1.213 1.892-.121.847-.844 1.475-1.695 1.473-.163 0-.326-.025-.482-.07-1.126-.335-2.229-.674-3.308-1.017-.9-.287-1.398-1.253-1.112-2.156zm12.652-14.115c-16.498-4.475-27.182-4.62-29.078-3.445.87 1.081 1.96 1.963 3.197 2.585 8.465.392 16.853 1.793 24.988 4.174 8.218 2.072 16.166 5.105 23.68 9.036 1.381.09 2.765-.122 4.06-.62-1.047-1.972-10.35-7.254-26.847-11.73zM47.55 41.91c.181.074.369.148.554.22.81.32 1.64.64 2.494.956l.47.172c1.112.405 2.255.802 3.431 1.19l.307.1c1.054.358 2.137.697 3.235 1.03.24.072.476.146.72.219 1.223.365 2.46.72 3.717 1.062 1.257.342 2.505.66 3.741.961l.742.172c1.115.267 2.222.521 3.308.755l.303.066c1.217.258 2.408.494 3.573.709l.472.082c.909.163 1.791.308 2.66.44l.581.092c-4.879-1.932-9.865-3.58-14.933-4.939-5.059-1.388-10.192-2.487-15.375-3.287zM5.615 27.866c-.911-.25-1.852.29-2.1 1.205-.25.915.287 1.86 1.199 2.11l26.5 7.182c.099-.561.211-1.123.362-1.682l.448-1.657zM56.133 67.72c.754-.196 1.545.144 1.924.828l6.972 12.599c.655 1.186 1.168 2.446 1.528 3.754.025-.31.04-.618.04-.927v-9.442c.004-.778.529-1.456 1.28-1.652.75-.196 1.537.14 1.918.818l5.813 10.499c1.975 3.577 2.367 7.82 1.082 11.7l-1.633 4.928c-.232.701-.886 1.174-1.622 1.174H40.731c-.734 0-1.386-.473-1.619-1.173L37.471 95.9c-1.284-3.879-.89-8.122 1.085-11.697l5.813-10.502c.379-.683 1.17-1.023 1.923-.828.754.196 1.28.878 1.281 1.66v9.445c.008 2.414.788 4.76 2.223 6.695.242.32.46.663.673 1.006.464-.958 1.015-1.87 1.648-2.726 1.77-2.38 2.73-5.269 2.736-8.24v-11.33c0-.782.526-1.465 1.28-1.662zm23.984 28.587l3.242 1.086-1.141 3.432-3.242-1.086 1.14-3.432zm-48.974-12.11l2.989 1.669c-1.51 2.734-1.812 5.98-.83 8.947l1.637 4.927-3.248 1.085-1.636-4.927 1.62-.543-1.622.543c-1.282-3.882-.887-8.125 1.09-11.701zm27.129-8.192v4.708c-.007 3.713-1.205 7.325-3.42 10.3-1.63 2.191-2.575 4.82-2.717 7.553h20.067l1.245-3.755c.981-2.968.682-6.213-.828-8.948l-2.617-4.706v2.817c-.007 3.156-1.026 6.226-2.906 8.755-.126.172-.24.351-.343.537l-.17.299c-.436.709-1.317 1.002-2.088.693-.771-.308-1.21-1.128-1.04-1.945.677-3.234.173-6.607-1.421-9.5l-3.762-6.808zM44.151 81.16l-2.61 4.715c-1.507 2.734-1.808 5.977-.829 8.943l1.25 3.746h6.768c.022-.64.08-1.277.171-1.91-.34-1.422-.967-2.757-1.844-3.923-1.877-2.531-2.895-5.6-2.906-8.755v-2.816zm36.815-.223l1.805 3.262c1.28 2.307 1.912 4.919 1.83 7.557l-3.42-.11c.063-2.018-.42-4.015-1.398-5.78l-1.806-3.261 2.989-1.668zM36.946 73.7l2.988 1.668-3.8 6.866-2.99-1.668 3.802-6.866zm40.016 0l2.294 4.146-2.989 1.668-2.294-4.146 2.989-1.668zM40.33 66.9l3.058 1.536-1.71 3.434-3.058-1.536 1.71-3.433zm49.368-30.132V40.2H86.28v-3.433h3.42zm-18.806-8.584v5.15h-3.419v-5.15h3.42zM89.698 29.9v3.433H86.28V29.9h3.42zm-34.193-5.15v3.433h-3.419V24.75h3.42zm42.485-9.535l.737 1.11c2.005 3.031 1.607 7.06-.95 9.639l-2.418-2.428c1.407-1.419 1.626-3.637.523-5.306l-.737-1.112 2.845-1.903zm-27.098 6.102v3.433h-3.419v-3.433h3.42zM72.23 4.008l7.928 4.215 10.454-2.148-4.346 14.76-6.37-.133-9.534-8.324 1.868-8.37zM54 0c3.864 0 7 3.047 7 6.81 0 1.173-.647 2.735-1.806 4.608-.47.758-1.015 1.552-1.621 2.371-.743 1.004-1.538 1.994-2.334 2.926l-.402.466-.66.741c-.096.104-.258.104-.354 0l-.293-.324c-.232-.26-.49-.557-.77-.883-.795-.932-1.59-1.922-2.333-2.926-.606-.819-1.151-1.613-1.62-2.371C47.646 9.545 47 7.983 47 6.811 47 3.047 50.136 0 54 0zm21.88 8.277c-.544-.1-1.065.26-1.165.802l-.51 2.781c-.067.357.067.722.347.953l5.521 4.545c.16.131.355.21.561.225l2.823.211c.48.036.919-.276 1.041-.743l1.983-7.54-5.626 1.023c-.467.085-.948.001-1.358-.236l-3.298-1.904c-.1-.057-.207-.097-.32-.117zM54 3c-1.655 0-3 1.341-3 3s1.345 3 3 3 3-1.341 3-3-1.345-3-3-3z"/>
</svg>
