<svg xmlns="http://www.w3.org/2000/svg" width="85" height="85" viewBox="0 0 85 85">
    <g fill="none" fill-rule="evenodd">
        <g fill="#093548">
            <path d="M732.5 315c8.634 0 16.133 4.864 19.905 12H758c.552 0 1 .448 1 1s-.448 1-1 1h-4.66c1.07 2.623 1.66 5.492 1.66 8.5 0 3.395-.752 6.615-2.098 9.501L758 347c.552 0 1 .448 1 1s-.448 1-1 1h-6c-.051 0-.102-.004-.151-.011-1.278 2.15-2.906 4.068-4.804 5.678l15.67 15.67c.38.38.38.997 0 1.378-.381.38-.998.38-1.379 0l-15.843-15.844c-3.67 2.6-8.153 4.129-12.993 4.129-8.23 0-15.427-4.418-19.35-11.012-.048.008-.099.012-.15.012h-34c-.552 0-1-.448-1-1s.448-1 1-1l33.098.001c-1.346-2.886-2.098-6.106-2.098-9.501 0-3.008.59-5.877 1.66-8.5H709c-.552 0-1-.448-1-1s.448-1 1-1h3.595c3.772-7.136 11.27-12 19.905-12zm6.5 52c.552 0 1 .448 1 1s-.448 1-1 1h-60c-.552 0-1-.448-1-1s.448-1 1-1h60zm-6.5-50c-11.322 0-20.5 9.178-20.5 20.5s9.178 20.5 20.5 20.5 20.5-9.178 20.5-20.5-9.178-20.5-20.5-20.5zm-4.705 14.308l5.205 5.204 5.205-5.204c.41-.41 1.076-.41 1.487 0 .41.41.41 1.076 0 1.487L734.488 338l5.204 5.205c.41.41.41 1.076 0 1.487-.41.41-1.076.41-1.487 0L733 339.488l-5.205 5.204c-.41.41-1.076.41-1.487 0-.41-.41-.41-1.076 0-1.487l5.204-5.205-5.204-5.205c-.41-.41-.41-1.076 0-1.487.41-.41 1.076-.41 1.487 0zM701 327c.552 0 1 .448 1 1s-.448 1-1 1h-22c-.552 0-1-.448-1-1s.448-1 1-1h22zm28-20c.552 0 1 .448 1 1s-.448 1-1 1h-50c-.552 0-1-.448-1-1s.448-1 1-1h50zm33 0c.552 0 1 .448 1 1s-.448 1-1 1h-27c-.552 0-1-.448-1-1s.448-1 1-1h27zm-13-20c.552 0 1 .448 1 1s-.448 1-1 1h-70c-.552 0-1-.448-1-1s.448-1 1-1h70z" transform="translate(-678 -287)"/>
        </g>
    </g>
</svg>
