<?xml version="1.0" encoding="UTF-8"?>
<svg width="85px" height="85px" viewBox="0 0 85 85" version="1.1" xmlns="http://www.w3.org/2000/svg" xmlns:xlink="http://www.w3.org/1999/xlink">
    <title>F7F81E60-21F6-47BF-9AB0-D31774148F79</title>
    <g id="Dynamic-geofenced-areas" stroke="none" stroke-width="1" fill="none" fill-rule="evenodd">
        <g id="Version-history---Empty-state" transform="translate(-678.000000, -291.000000)" fill="#093548" fill-rule="nonzero">
            <path d="M753.281777,291.259741 C752.794854,291.089248 752.290166,291.00259 751.781826,291.00259 C749.271172,291.00259 747.228516,293.054647 747.228516,295.577011 L747.228516,304.284432 L712.246367,304.284432 C711.026816,304.284432 709.880312,304.759388 709.018193,305.621647 L705.697881,308.941858 C704.888887,309.751159 703.572051,309.751159 702.763057,308.941858 L699.442744,305.621813 C698.580625,304.759554 697.433955,304.284432 696.21457,304.284432 L693.771484,304.284432 L693.771484,295.577011 C693.771484,294.096529 693.049648,292.701044 691.840723,291.843766 C690.623828,290.981009 689.120889,290.767851 687.718389,291.259907 C681.905684,293.298018 678,298.808075 678,304.970885 L678,361.474075 C678,369.483753 684.516445,376 692.526367,376 L726.49167,376 C727.711221,376 728.857559,375.52521 729.719844,374.662951 L733.040156,371.34274 C733.84915,370.533438 735.165986,370.533438 735.97498,371.34274 L739.295293,374.662951 C740.157578,375.525044 741.304082,376 742.523467,376 L748.473633,376 C751.497773,376 754.396738,375.079471 756.857256,373.338187 C757.418555,372.940757 757.551533,372.163828 757.154258,371.602546 C756.756816,371.041264 755.979863,370.908456 755.418564,371.305553 C753.381055,372.747687 750.979639,373.509842 748.473633,373.509842 L742.523467,373.509842 C741.969141,373.509842 741.448018,373.294028 741.056221,372.902077 L737.735908,369.581866 C735.955723,367.802066 733.059248,367.802066 731.279063,369.581866 L727.95875,372.902077 C727.566953,373.294028 727.04583,373.509842 726.491504,373.509842 L692.526367,373.509842 C685.889561,373.509842 680.490234,368.11068 680.490234,361.474075 C680.490234,355.781075 684.531553,350.822174 690.099219,349.682843 C692.227041,349.247563 693.771484,347.375296 693.771484,345.231104 L693.771484,336.766391 C693.771484,336.078609 693.21417,335.521312 692.526367,335.521312 C691.838564,335.521312 691.28125,336.078609 691.28125,336.766391 L691.28125,345.231104 C691.28125,346.213388 690.589961,347.040785 689.60001,347.243318 C685.784307,348.024065 682.562607,350.290276 680.490234,353.360807 L680.490234,304.970885 C680.490234,299.864068 683.726045,295.298446 688.542324,293.60962 C689.17335,293.38866 689.850527,293.485278 690.400371,293.875071 C690.960176,294.272002 691.28125,294.892384 691.28125,295.577011 L691.28125,331.785908 C691.28125,332.47369 691.838564,333.030987 692.526367,333.030987 C693.21417,333.030987 693.771484,332.47369 693.771484,331.785908 L693.771484,306.77459 L696.21457,306.77459 C696.768896,306.77459 697.29002,306.990404 697.681816,307.382521 L701.002129,310.702732 C701.892139,311.592715 703.061387,312.037623 704.230469,312.037623 C705.399551,312.037623 706.568799,311.592715 707.458809,310.702732 L710.779121,307.382355 C711.170918,306.990404 711.692041,306.77459 712.246367,306.77459 L747.228516,306.77459 L747.228516,322.913805 C747.228516,324.133319 747.70332,325.279622 748.565605,326.141881 L751.885918,329.462092 C752.277881,329.853877 752.493867,330.37515 752.493867,330.929459 C752.493867,331.483603 752.277881,332.004876 751.885918,332.396661 L748.565605,335.717038 C747.703486,336.579297 747.228516,337.725932 747.228516,338.945114 L747.228516,345.230938 C747.228516,347.37513 748.772959,349.247397 750.900615,349.682677 C756.468447,350.822008 760.509766,355.780909 760.509766,361.473909 C760.509766,363.901316 759.790918,366.240239 758.430918,368.237844 C758.044102,368.806264 758.191191,369.580869 758.759463,369.96784 C758.973955,370.113763 759.217832,370.18382 759.459053,370.18382 C759.857158,370.18382 760.248457,369.99324 760.489512,369.639305 C762.131904,367.22684 763,364.403166 763,361.473909 L763,304.970885 C763,298.808241 759.094648,293.298018 753.281777,291.259741 Z M751.399824,347.243318 C750.410039,347.040785 749.71875,346.213388 749.71875,345.231104 L749.71875,338.94528 C749.71875,338.39097 749.93457,337.869697 750.326533,337.477912 L753.646846,334.157701 C755.426865,332.37757 755.426865,329.481349 753.646846,327.701218 L750.326533,324.381007 C749.940215,323.994866 749.71875,323.45998 749.71875,322.913805 L749.71875,295.577011 C749.71875,294.42772 750.644121,293.492749 751.781826,293.492749 C752.008936,293.492749 752.236377,293.532093 752.457842,293.60962 C757.273955,295.298446 760.509766,299.864234 760.509766,304.970885 L760.509766,353.360641 C758.437393,350.29011 755.215693,348.024065 751.399824,347.243318 L751.399824,347.243318 Z M711.638706,329.481479 C714.395261,326.043888 718.809688,324.399589 723.135345,325.199133 C726.787985,325.874278 729.880367,328.200107 731.569162,331.434672 L731.800779,331.902854 L731.911199,332.154097 L732.510159,330.909716 C732.643572,330.59463 732.892657,330.350369 733.197493,330.220716 L733.386604,330.157027 L733.586219,330.122946 C734.061986,330.079601 734.522992,330.302209 734.785951,330.702319 C735.01139,331.045343 735.059926,331.471153 734.925988,331.851298 L734.868959,331.972532 L734.857753,332.01409 L732.742607,336.430567 C732.46281,337.01171 731.808495,337.289676 731.210601,337.113234 L731.013984,337.037383 L726.588926,334.905189 C725.979969,334.574811 725.737203,333.822774 726.037612,333.197043 C726.307927,332.633998 726.932175,332.352076 727.534857,332.506413 L727.734437,332.57423 L729.662719,333.504357 L729.59755,333.334794 C728.543139,330.836649 726.45549,328.907402 723.871535,328.063109 L723.381358,327.917645 L722.933563,327.809665 C719.468574,327.063549 715.880266,328.34098 713.657097,331.114488 C711.524178,333.729406 710.954713,337.291131 712.165477,340.443715 C713.376266,343.596365 716.181083,345.854822 719.512124,346.35921 C722.843196,346.863603 726.187907,345.536276 728.271837,342.883925 C728.559622,342.515222 729.022783,342.330192 729.484448,342.399448 C729.946143,342.46871 730.335096,342.781605 730.502729,343.218686 C730.670388,343.655832 730.590743,344.149633 730.299059,344.505479 C728.316664,346.998484 725.421219,348.59127 722.261081,348.927873 C721.822606,348.975882 721.382814,349 720.942598,349 C716.342392,348.990862 712.154648,346.337763 710.170441,342.175343 C708.186195,338.012842 708.756952,333.078067 711.638706,329.481479 Z M720.180582,330.464786 C720.83148,330.464786 721.370418,330.94594 721.463028,331.573086 L721.477087,331.765274 L721.475838,337.60105 L724.462605,339.368483 C724.956237,339.660155 725.186508,340.2288 725.07271,340.761479 L725.013749,340.958937 L724.921586,341.149355 C724.594422,341.70626 723.917983,341.928846 723.336252,341.702071 L723.146458,341.609678 L719.522911,339.46872 C719.183791,339.268495 718.956813,338.926861 718.898763,338.543181 L718.884078,338.348297 L718.884078,331.765274 C718.884078,331.046982 719.464595,330.464786 720.180582,330.464786 Z" id="No-versions"></path>
        </g>
    </g>
</svg>